<svg version="1.1" id="Ebene_1" xmlns="http://www.w3.org/2000/svg" xmlns:xlink="http://www.w3.org/1999/xlink" x="0px" y="0px" width="175px" height="30px" viewBox="0 0 175 30" enable-background="new 0 0 175 30" xml:space="preserve">
<path fill="#BE0A26" d="M33.908,8.99c0.072-1.582,0.81-2.604,1.881-3.228c1.063-0.603,2.461-0.837,3.83-0.837
	c2.852,0,5.61,0.631,5.61,4.037v5.27c0,1.021,0,2.132,0.468,3.084h-3.972c-0.135-0.367-0.185-0.737-0.228-1.132
	c-1.021,1.068-2.531,1.479-3.971,1.479c-2.299,0-4.107-1.153-4.107-3.639c0-3.922,4.27-3.625,7.008-4.179
	c0.674-0.142,1.043-0.376,1.043-1.114c0-0.908-1.085-1.255-1.9-1.255c-1.093,0-1.787,0.49-1.973,1.511h-3.689V8.99z M39.015,15.232
	c1.88,0,2.504-1.07,2.412-3.554c-0.56,0.349-1.582,0.418-2.44,0.652c-0.879,0.206-1.623,0.582-1.623,1.532
	C37.363,14.835,38.129,15.232,39.015,15.232z"></path>
<path fill="#BE0A26" d="M50.732,12.26c0.063,1.646,1.02,2.738,2.688,2.738c0.951,0,1.879-0.439,2.255-1.319h3.688
	c-0.724,2.781-3.299,3.986-5.986,3.986c-3.922,0-6.59-2.362-6.59-6.405c0-3.688,2.943-6.334,6.496-6.334
	c4.313,0,6.469,3.249,6.285,7.334H50.732z M55.625,10.055c-0.07-1.342-1.02-2.461-2.34-2.461c-1.397,0-2.326,1-2.553,2.461H55.625z"></path>
<path fill="#BE0A26" d="M61.078,0.749h3.945v5.852h0.047c0.812-1.112,1.945-1.674,3.436-1.674c3.412,0,5.078,2.972,5.078,6.106
	c0,3.384-1.602,6.633-5.383,6.633c-1.39,0-2.553-0.597-3.318-1.738H64.84v1.39h-3.76V0.749H61.078z M64.882,11.168
	c0,2.113,0.603,3.482,2.39,3.482c1.766,0,2.369-1.83,2.369-3.482c0-1.532-0.604-3.223-2.341-3.223
	C66.229,7.945,64.882,8.686,64.882,11.168z"></path>
<path fill="#BE0A26" d="M79.314,3.77h-3.943V0.749h3.943V3.77z M75.371,5.273h3.943v12.043h-3.943V5.273z"></path>
<g>
	<path fill="#BE0A26" d="M89.338,13.354c0,0.603,0.248,1.041,0.652,1.348c0.369,0.277,0.9,0.412,1.453,0.412
		c0.771,0,1.857-0.32,1.857-1.271c0-0.929-1.227-1.121-1.922-1.275c-2.488-0.632-5.596-0.703-5.596-3.951
		c0-2.9,3.127-3.688,5.496-3.688c2.652,0,5.412,0.767,5.555,3.901h-3.652c0-0.51-0.186-0.838-0.512-1.043
		c-0.326-0.211-0.76-0.305-1.248-0.305c-0.652,0-1.695,0.071-1.695,0.908c0,1.135,2.637,1.346,4.455,1.738
		c2.434,0.488,3.063,2.249,3.063,3.249c0,3.227-3.063,4.291-5.779,4.291c-2.844,0-5.773-0.943-5.895-4.313H89.338L89.338,13.354z"></path>
	<path fill="#BE0A26" d="M106.543,9.686c-0.02-1.021-0.922-1.74-1.922-1.74c-2.205,0-2.553,1.881-2.553,3.549
		c0,1.554,0.674,3.156,2.348,3.156c1.369,0,2.064-0.787,2.248-2.063h3.838c-0.346,3.23-2.857,5.079-6.064,5.079
		c-3.617,0-6.313-2.482-6.313-6.171c0-3.83,2.434-6.568,6.313-6.568c3,0,5.66,1.582,5.943,4.759H106.543L106.543,9.686z"></path>
	<path fill="#BE0A26" d="M111.998,0.749h3.943v6.178h0.057c0.596-1.233,2.227-2,3.66-2c4.021,0,4.348,2.927,4.348,4.667v7.724
		h-3.955v-5.822c0-1.646,0.195-3.319-1.969-3.319c-1.488,0-2.141,1.255-2.141,2.575v6.568h-3.943V0.749z"></path>
	<path fill="#BE0A26" d="M126.154,5.273h3.836v1.652h0.043c0.717-1.212,2-2,3.455-2c1.51,0,2.857,0.489,3.51,1.951
		c0.943-1.277,2.129-1.951,3.76-1.951c3.822,0,4.234,2.9,4.234,5.199v7.191h-3.943v-7.078c0-1.297-0.617-2.063-1.639-2.063
		c-1.695,0-1.859,1.298-1.859,3.249v5.894h-3.941v-6.845c0-1.41-0.426-2.298-1.49-2.298c-1.41,0-2.02,0.815-2.02,3.276v5.865h-3.943
		V5.273H126.154z"></path>
	<path fill="#BE0A26" d="M151.262,3.77h-3.943V0.749h3.943V3.77z M147.316,5.273h3.943v12.043h-3.943V5.273z"></path>
	<path fill="#BE0A26" d="M165.502,17.317h-3.758v-1.39h-0.043c-0.76,1.142-1.922,1.738-3.313,1.738
		c-3.781,0-5.393-3.249-5.393-6.633c0-3.135,1.676-6.106,5.086-6.106c1.49,0,2.617,0.562,3.434,1.649h0.043V0.749h3.943V17.317
		L165.502,17.317z M156.941,11.168c0,1.652,0.609,3.482,2.412,3.482c1.936,0,2.348-1.83,2.348-3.361
		c0-1.745-0.615-3.344-2.348-3.344C157.553,7.945,156.941,9.636,156.941,11.168z"></path>
	<path fill="#BE0A26" d="M175,7.826h-2.434v5.477c0,0.95,0.553,1.163,1.412,1.163c0.326,0,0.674-0.05,1.02-0.05v2.901
		c-0.717,0.021-1.434,0.119-2.164,0.119c-3.354,0-4.213-0.978-4.213-4.247V7.827h-2V5.273h2V1.635h3.943v3.639h2.434v2.553H175z"></path>
</g>
<rect x="28.947" y="0.143" width="0.274" height="17.625"></rect>
<g>
	<path d="M38.222,27.481C38.213,29.049,37.611,30,35.89,30c-1.048,0-2.087-0.459-2.187-1.587h0.646
		c0.145,0.781,0.828,1.049,1.54,1.049c1.185,0,1.692-0.702,1.692-1.979v-0.725h-0.019c-0.299,0.646-0.919,1.09-1.675,1.09
		c-1.686,0-2.377-1.203-2.377-2.705c0-1.454,0.855-2.655,2.377-2.655c0.766,0,1.42,0.48,1.675,1.069h0.019v-0.916h0.64V27.481z
		 M37.584,25.208c0-1.029-0.482-2.171-1.693-2.171c-1.221,0-1.73,1.085-1.73,2.171c0,1.067,0.547,2.1,1.73,2.1
		C37.002,27.308,37.584,26.288,37.584,25.208z"></path>
	<path d="M39.451,22.64h0.592v1.244h0.019c0.328-0.847,1.039-1.348,1.986-1.311v0.646c-1.166-0.07-1.958,0.786-1.958,1.885v2.798
		h-0.639V22.64z"></path>
	<path d="M47.187,25.278c0,1.494-0.875,2.778-2.485,2.778c-1.611,0-2.487-1.284-2.487-2.778c0-1.512,0.875-2.793,2.487-2.793
		C46.313,22.485,47.187,23.767,47.187,25.278z M42.859,25.278c0,1.113,0.61,2.24,1.84,2.24c1.237,0,1.849-1.127,1.849-2.24
		c0-1.128-0.611-2.24-1.849-2.24C43.47,23.037,42.859,24.151,42.859,25.278z"></path>
	<path d="M52.406,27.903h-0.592v-0.942h-0.02c-0.336,0.704-1.028,1.097-1.813,1.097c-1.328,0-1.848-0.781-1.848-2.002v-3.415h0.646
		v3.424c0.027,0.955,0.383,1.455,1.402,1.455c1.102,0,1.583-1.038,1.583-2.119v-2.76h0.64V27.903L52.406,27.903z"></path>
	<path d="M53.625,22.64h0.586v1.001h0.025c0.293-0.711,1.029-1.155,1.877-1.155c1.594,0,2.359,1.301,2.359,2.793
		c0,1.479-0.766,2.778-2.359,2.778c-0.791,0-1.559-0.393-1.83-1.155h-0.02v2.942h-0.639V22.64L53.625,22.64z M56.113,23.037
		c-1.42,0-1.85,1.048-1.85,2.239c0,1.086,0.482,2.241,1.85,2.241c1.221,0,1.721-1.155,1.721-2.241
		C57.834,24.179,57.334,23.037,56.113,23.037z"></path>
</g>
<g>
	<polygon fill="#BE0A26" points="21.609,5.318 25.273,5.318 25.266,12.137 22.869,12.135 22.875,7.906 15.747,17.303 12.505,17.303
			"></polygon>
	<polygon fill="#BE0A26" points="18.79,5.318 9.71,17.303 6.487,17.303 15.566,5.318 	"></polygon>
	<polygon fill="#BE0A26" points="3.663,17.303 0,17.303 0.006,10.484 2.402,10.486 2.397,14.716 9.518,5.318 12.761,5.318 	"></polygon>
</g>
</svg>