<svg version="1.1" xmlns="http://www.w3.org/2000/svg" xmlns:xlink="http://www.w3.org/1999/xlink" x="0px" y="0px" viewBox="0 0 514.719 75.969" xml:space="preserve"><g><path style="fill:#F5A700;" d="M85.152,74.859H28.051c-6.698,0-12.386-2.226-17.07-6.667c-4.693-4.438-7.029-9.99-7.029-16.678 V24.454c0-6.683,2.336-12.237,7.029-16.675c4.684-4.439,10.372-6.664,17.07-6.664h57.101v17.219H28.051 c-4.587,0-6.888,2.047-6.888,6.146v27.015c0,4.094,2.301,6.143,6.888,6.143h39.885V46.6H44.547V29.375h40.604V74.859z"></path><polygon style="fill:#F5A700;" points="248.424,27.229 265.463,74.859 284.251,74.859 310.748,1.115 288.669,1.115 273.054,45.157 257.735,1.115 248.421,1.109 239.092,1.115 223.746,45.157 208.104,1.115 185.989,1.115 212.529,74.859 231.349,74.859 248.418,27.229 "></polygon><polygon style="fill:#F5A700;" points="399.212,18.334 337.653,18.334 337.653,29.375 391.914,29.375 391.914,46.6 337.653,46.6 337.653,57.638 399.07,57.638 399.07,74.859 316.693,74.859 316.693,1.115 399.212,1.115 "></polygon><rect x="407.908" y="1.115" style="fill:#F5A700;" width="18.481" height="73.744"></rect><polygon style="fill:#F5A700;" points="510.767,74.859 436.875,74.859 436.875,1.115 455.347,1.115 455.347,57.638 510.767,57.638 "></polygon><g><path style="fill:#F5A700;" d="M168.16,24.48v4.54h17.216v-4.566c0-6.683-2.349-12.237-7.031-16.675 c-4.686-4.439-10.375-6.664-17.067-6.664h-4.119v17.219h4.119C165.866,18.334,168.16,20.381,168.16,24.48z"></path><path style="fill:#F5A700;" d="M168.16,35.653v15.841c0,4.094-2.293,6.143-6.882,6.143h-43.33c-4.586,0-6.883-2.049-6.883-6.143 V24.48c0-4.099,2.297-6.146,6.883-6.146h33.127V1.115h-33.127c-6.697,0-12.384,2.225-17.069,6.664 c-4.688,4.438-7.031,9.992-7.031,16.675v27.061c0,6.688,2.343,12.24,7.031,16.678c4.685,4.441,10.372,6.667,17.069,6.667h43.33 c6.692,0,12.382-2.226,17.067-6.667c4.683-4.438,7.031-9.99,7.031-16.678V35.653H168.16z"></path></g></g></svg>